<?xml version="1.0" standalone="no"?>
<!DOCTYPE svg PUBLIC "-//W3C//DTD SVG 20010904//EN"
 "http://www.w3.org/TR/2001/REC-SVG-20010904/DTD/svg10.dtd">
<svg version="1.0" xmlns="http://www.w3.org/2000/svg"
 width="500.000000pt" height="369.000000pt" viewBox="0 0 500.000000 369.000000"
 preserveAspectRatio="xMidYMid meet">
<metadata>
Created by potrace 1.15, written by Peter Selinger 2001-2017
</metadata>
<g transform="translate(0.000000,369.000000) scale(0.100000,-0.100000)"
fill="#000000" stroke="none">
<path d="M1759 2413 c-397 -653 -796 -1309 -887 -1456 -90 -148 -161 -271
-158 -274 8 -9 327 73 491 125 393 124 732 293 950 472 131 108 213 208 277
337 l43 86 5 946 c3 520 5 947 4 949 -1 2 -327 -532 -725 -1185z"/>
<path d="M2512 2649 l3 -954 25 -60 c41 -97 97 -173 209 -286 267 -267 727
-483 1341 -630 91 -22 174 -42 184 -46 14 -4 18 -1 13 10 -9 24 -309 519
-1115 1842 -444 728 -651 1066 -658 1074 -3 3 -3 -425 -2 -950z"/>
<path d="M235 308 c-7 -19 -85 -297 -85 -303 0 -3 18 -5 39 -5 31 0 41 4 46
20 9 29 85 29 92 0 4 -16 14 -20 44 -20 22 0 39 3 39 7 0 4 -19 76 -42 160
l-42 153 -43 0 c-26 0 -46 -5 -48 -12z"/>
<path d="M1070 160 l0 -160 39 0 40 0 3 47 3 48 25 -48 c24 -45 27 -47 67 -47
24 0 43 3 43 6 0 4 -14 31 -30 60 l-31 53 20 20 c42 42 39 125 -6 161 -21 16
-40 20 -99 20 l-74 0 0 -160z"/>
<path d="M1980 188 c1 -89 5 -138 13 -149 20 -26 53 -39 102 -39 38 0 52 5 76
29 l29 29 0 131 0 131 -40 0 -40 0 0 -114 c0 -118 -9 -144 -43 -130 -22 8 -27
36 -27 147 l0 97 -35 0 -35 0 0 -132z"/>
<path d="M2890 161 l0 -161 71 0 c86 0 121 18 149 75 36 74 22 163 -34 215
-24 21 -39 25 -107 29 l-79 3 0 -161z"/>
<path d="M3790 160 l0 -160 40 0 40 0 0 60 0 60 40 0 40 0 0 -60 0 -60 40 0
40 0 0 160 0 160 -40 0 -40 0 0 -60 0 -60 -40 0 -40 0 0 60 0 60 -40 0 -40 0
0 -160z"/>
<path d="M4710 160 l0 -160 35 0 35 0 0 160 0 160 -35 0 -35 0 0 -160z"/>
</g>
</svg>
